<svg width="390" height="257" viewBox="0 0 390 257" fill="none" xmlns="http://www.w3.org/2000/svg">
<path fill-rule="evenodd" clip-rule="evenodd" d="M-252.781 231.82C-218.652 247.503 -130.052 271.767 -48.5605 243.352C-35.8037 238.904 -26.936 233.436 -20.9271 227.242C-14.9124 221.042 -11.7837 214.136 -10.4727 206.856C-9.16339 199.585 -9.66858 191.953 -10.8996 184.291C-11.7884 178.759 -13.0609 173.185 -14.3102 167.713C-14.7896 165.613 -15.2654 163.529 -15.7149 161.467C-18.9741 146.52 -20.8276 132.818 -13.0969 122.566C-5.36188 112.309 12.1165 105.32 48.1165 104.305C102.245 102.777 139.32 116.118 170.766 127.434L170.767 127.434C181.1 131.152 190.826 134.652 200.349 137.333C219.598 142.753 238 144.811 258.83 138.477C279.644 132.147 302.829 117.455 331.691 89.4887C360.461 61.6113 384.442 53.3573 405.816 55.884C427.23 58.4155 446.157 71.7769 464.796 87.4521C469.291 91.2324 473.77 95.148 478.261 99.0746C492.353 111.394 506.569 123.822 521.799 132.52C541.927 144.015 563.897 149.042 589.822 138.813L589.455 137.883C563.882 147.973 542.233 143.038 522.295 131.652C507.16 123.009 493.052 110.675 478.978 98.3718L478.977 98.3711C474.472 94.4326 469.97 90.4971 465.439 86.6868C446.796 71.0081 427.669 57.4604 405.933 54.8909C384.157 52.3166 359.892 60.7697 330.995 88.7706C302.189 116.683 279.139 131.256 258.539 137.52C237.955 143.78 219.761 141.76 200.62 136.371C191.183 133.714 181.511 130.233 171.212 126.527C139.743 115.202 102.425 101.772 48.0883 103.305C12.0711 104.321 -5.85559 111.302 -13.8953 121.964C-21.9392 132.631 -19.9371 146.798 -16.692 161.68C-16.2385 163.76 -15.7605 165.854 -15.2803 167.958L-15.2781 167.967L-15.2772 167.971C-14.0308 173.43 -12.77 178.954 -11.8869 184.45C-10.6641 192.06 -10.1761 199.566 -11.4568 206.678C-12.7358 213.78 -15.7803 220.5 -21.6448 226.546C-27.5151 232.597 -36.2327 237.994 -48.8897 242.408C-130.046 270.706 -218.364 246.535 -252.364 230.911L-252.781 231.82ZM-59.4507 225.625C-140.943 254.105 -229.543 229.785 -263.672 214.067L-263.254 213.158C-229.255 228.817 -140.937 253.043 -59.7807 224.681C-47.1237 220.258 -38.4062 214.848 -32.5359 208.783C-26.6713 202.724 -23.6265 195.989 -22.3475 188.87C-21.0667 181.742 -21.5547 174.218 -22.7776 166.59C-23.6608 161.081 -24.9221 155.544 -26.1687 150.071L-26.1709 150.061C-26.6511 147.953 -27.1292 145.854 -27.5826 143.77C-30.8278 128.853 -32.8297 114.656 -24.7863 103.965C-16.7466 93.2798 1.18018 86.2826 37.1976 85.2641C91.5343 83.7276 128.853 97.1878 160.322 108.538C170.621 112.253 180.293 115.741 189.73 118.405C208.87 123.806 227.064 125.83 247.648 119.557C268.248 113.278 291.298 98.672 320.104 70.697C349.001 42.633 373.266 34.1606 395.043 36.7408C416.779 39.3161 435.906 52.8945 454.549 68.6086C459.08 72.4275 463.582 76.3718 468.087 80.3191L468.088 80.3199C482.162 92.6512 496.27 105.012 511.405 113.675C531.342 125.087 552.991 130.033 578.564 119.92L578.932 120.85C553.007 131.102 531.036 126.064 510.908 114.543C495.678 105.826 481.462 93.3692 467.37 81.022L467.37 81.0215C462.878 77.0861 458.4 73.1618 453.905 69.3732C435.265 53.6625 416.339 40.271 394.925 37.7338C373.552 35.2015 349.571 43.4738 320.8 71.4144C291.939 99.4438 268.754 114.169 247.94 120.513C227.109 126.862 208.707 124.799 189.458 119.367C179.935 116.68 170.209 113.172 159.876 109.445L159.875 109.445C128.429 98.1041 91.3536 84.7331 37.2259 86.2637C1.2262 87.2817 -16.252 94.2857 -23.9871 104.567C-31.7184 114.842 -29.8646 128.576 -26.6055 143.557C-26.1559 145.624 -25.68 147.713 -25.2006 149.818C-23.9514 155.302 -22.6789 160.888 -21.7902 166.432C-20.5592 174.111 -20.0541 181.761 -21.3632 189.047C-22.6742 196.343 -25.8027 203.264 -31.8173 209.478C-37.8262 215.687 -46.6939 221.167 -59.4507 225.625ZM-274.109 195.916C-239.999 211.634 -151.446 235.953 -69.9975 207.474C-57.2474 203.016 -48.3845 197.535 -42.3788 191.327C-36.3674 185.113 -33.2407 178.192 -31.9304 170.896C-30.6219 163.61 -31.1268 155.96 -32.3571 148.281C-33.2452 142.738 -34.5167 137.153 -35.7651 131.669L-35.7654 131.668L-35.7656 131.667L-35.7658 131.666C-36.2449 129.562 -36.7205 127.472 -37.1698 125.406C-40.4272 110.425 -42.28 96.6911 -34.5529 86.4153C-26.822 76.1346 -9.35333 69.1306 26.6269 68.1126C80.7255 66.582 117.781 79.953 149.21 91.2938L149.211 91.2942L149.212 91.2945L149.212 91.2948C159.54 95.0213 169.26 98.5286 178.777 101.216C198.016 106.648 216.408 108.711 237.227 102.362C258.031 96.0182 281.203 81.2926 310.049 53.2632C338.804 25.3226 362.772 17.0504 384.133 19.5827C405.535 22.1199 424.452 35.5113 443.081 51.222C447.574 55.0107 452.05 58.9352 456.539 62.8707C470.623 75.218 484.832 87.6744 500.054 96.3919C520.171 107.913 542.13 112.951 568.041 102.699L567.673 101.769C542.114 111.882 520.477 106.936 500.551 95.5241C485.424 86.8614 471.324 74.5004 457.258 62.1694L457.257 62.169C452.754 58.2213 448.254 54.2767 443.726 50.4575C425.092 34.7435 405.976 21.1651 384.251 18.5897C362.486 16.0095 338.234 24.482 309.352 52.546C280.562 80.521 257.525 95.1271 236.936 101.406C216.363 107.679 198.179 105.655 179.049 100.253C169.617 97.5904 159.95 94.1019 149.658 90.3875L149.657 90.3873C118.205 79.0367 80.9062 65.5765 26.5986 67.113C-9.39948 68.1315 -27.3168 75.1287 -35.3521 85.8143C-43.3911 96.5048 -41.3904 110.702 -38.147 125.619C-37.6932 127.706 -37.2147 129.808 -36.7339 131.919C-35.4879 137.392 -34.2273 142.93 -33.3445 148.439C-32.1224 156.067 -31.6345 163.591 -32.9147 170.719C-34.193 177.838 -37.2361 184.573 -43.0975 190.632C-48.9647 196.697 -57.6775 202.107 -70.3276 206.53C-151.44 234.892 -239.71 210.666 -273.691 195.007L-274.109 195.916ZM-285 177.765C-250.871 193.483 -162.271 217.802 -80.7783 189.323C-68.0215 184.865 -59.1538 179.384 -53.1449 173.176C-47.1303 166.962 -44.0018 160.041 -42.6908 152.745C-41.3817 145.458 -41.8868 137.809 -43.1177 130.13C-44.0065 124.586 -45.2789 119 -46.5282 113.515C-47.0076 111.411 -47.4835 109.321 -47.933 107.255C-51.1922 92.2742 -53.046 78.5401 -45.3147 68.2643C-37.5796 57.9835 -20.1014 50.9795 15.8983 49.9615C70.0261 48.4309 107.101 61.8019 138.547 73.1428C148.881 76.8697 158.607 80.3773 168.131 83.0648C187.38 88.4967 205.781 90.5596 226.612 84.2109C247.427 77.8672 270.611 63.1416 299.473 35.1122C328.243 7.17163 352.224 -1.10074 373.597 1.43161C395.011 3.96881 413.938 17.3603 432.577 33.071C437.072 36.8596 441.551 40.7839 446.042 44.7193L446.043 44.7198L446.043 44.7198L446.043 44.7199C460.134 57.0672 474.35 69.5235 489.581 78.2409C509.709 89.7616 531.679 94.8 557.604 84.5477L557.237 83.6177C531.664 93.7307 510.015 88.7844 490.077 77.373C474.942 68.7101 460.834 56.3489 446.76 44.0177C442.255 40.0701 437.753 36.1255 433.222 32.3063C414.578 16.5923 395.451 3.01392 373.715 0.438568C351.938 -2.1416 327.673 6.33081 298.776 34.3948C269.971 62.3698 246.921 76.9759 226.32 83.2544C205.736 89.528 187.543 87.5036 168.402 82.1024C158.965 79.4392 149.293 75.9507 138.995 72.2361C107.525 60.8856 70.2068 47.4254 15.87 48.9619C-20.1474 49.9804 -38.0742 56.9776 -46.1138 67.6631C-54.1572 78.3537 -52.1553 92.5512 -48.9102 107.468C-48.4567 109.552 -47.9787 111.651 -47.4985 113.759L-47.4963 113.769C-46.2496 119.242 -44.9884 124.779 -44.1052 130.288C-42.8823 137.916 -42.3942 145.44 -43.675 152.568C-44.9541 159.686 -47.9988 166.422 -53.8635 172.481C-59.7338 178.546 -68.4513 183.955 -81.1083 188.379C-162.265 216.741 -250.582 192.515 -284.581 176.856L-285 177.765Z" fill="url(#paint0_linear_313_2630)"/>
<defs>
<linearGradient id="paint0_linear_313_2630" x1="503.746" y1="55.8267" x2="-151.419" y2="55.8267" gradientUnits="userSpaceOnUse">
<stop offset="0.310417" stop-color="white" stop-opacity="0.24"/>
<stop offset="0.461458" stop-color="white" stop-opacity="0.38"/>
<stop offset="0.851637" stop-color="white" stop-opacity="0.07"/>
</linearGradient>
</defs>
</svg>
