<svg width="390" height="257" viewBox="0 0 390 257" fill="none" xmlns="http://www.w3.org/2000/svg">
<path opacity="0.5" fill-rule="evenodd" clip-rule="evenodd" d="M-252.781 24.6567C-218.652 8.97353 -130.052 -15.2907 -48.5605 13.1246C-35.8037 17.5728 -26.936 23.0405 -20.9271 29.2347C-14.9124 35.4348 -11.7837 42.3406 -10.4727 49.6209C-9.16339 56.8912 -9.66858 64.524 -10.8996 72.1856C-11.7884 77.7175 -13.0609 83.2915 -14.3102 88.7638C-14.7896 90.8632 -15.2654 92.9477 -15.7149 95.0091C-18.9741 109.956 -20.8276 123.659 -13.0969 133.91C-5.36188 144.168 12.1165 151.156 48.1165 152.172C102.245 153.699 139.32 140.358 170.766 129.043L170.767 129.043C181.1 125.324 190.826 121.825 200.349 119.143C219.598 113.724 238 111.665 258.83 118C279.644 124.329 302.829 139.021 331.691 166.988C360.461 194.865 384.442 203.119 405.816 200.593C427.23 198.061 446.157 184.7 464.796 169.024C469.291 165.244 473.77 161.329 478.261 157.402C492.353 145.082 506.569 132.654 521.799 123.956C541.927 112.462 563.897 107.435 589.822 117.664L589.455 118.594C563.882 108.504 542.233 113.439 522.295 124.825C507.16 133.468 493.052 145.801 478.978 158.105L478.977 158.105C474.472 162.044 469.97 165.979 465.439 169.79C446.796 185.469 427.669 199.016 405.933 201.586C384.157 204.16 359.892 195.707 330.995 167.706C302.189 139.794 279.139 125.221 258.539 118.956C237.955 112.697 219.761 114.717 200.62 120.106C191.183 122.763 181.511 126.244 171.212 129.95C139.743 141.275 102.425 154.705 48.0883 153.172C12.0711 152.155 -5.85559 145.174 -13.8953 134.513C-21.9392 123.845 -19.9371 109.679 -16.692 94.7961C-16.2385 92.7167 -15.7605 90.6226 -15.2803 88.519L-15.2781 88.5095L-15.2772 88.5058C-14.0308 83.0463 -12.77 77.523 -11.8869 72.027C-10.6641 64.4165 -10.1761 56.9102 -11.4568 49.7982C-12.7358 42.6962 -15.7803 35.9763 -21.6448 29.931C-27.5151 23.8797 -36.2327 18.4822 -48.8897 14.0689C-130.046 -14.2295 -218.364 9.94169 -252.364 25.5654L-252.781 24.6567ZM-59.4507 30.8516C-140.943 2.37204 -229.543 26.6912 -263.672 42.4098L-263.254 43.3181C-229.255 27.6592 -140.937 3.43349 -59.7807 31.7956C-47.1237 36.2189 -38.4062 41.6286 -32.5359 47.6936C-26.6713 53.7526 -23.6265 60.4879 -22.3475 67.6064C-21.0667 74.7348 -21.5547 82.2583 -22.7776 89.8861C-23.6608 95.3957 -24.9221 100.933 -26.1687 106.406L-26.1709 106.415C-26.6511 108.524 -27.1292 110.623 -27.5826 112.707C-30.8278 127.623 -32.8297 141.821 -24.7863 152.511C-16.7466 163.197 1.18018 170.194 37.1976 171.212C91.5343 172.749 128.853 159.289 160.322 147.938C170.621 144.224 180.293 140.735 189.73 138.072C208.87 132.671 227.064 130.646 247.648 136.92C268.248 143.198 291.298 157.805 320.104 185.78C349.001 213.844 373.266 222.316 395.043 219.736C416.779 217.16 435.906 203.582 454.549 187.868C459.08 184.049 463.582 180.105 468.087 176.157L468.088 176.157C482.162 163.825 496.27 151.464 511.405 142.801C531.342 131.39 552.991 126.444 578.564 136.557L578.932 135.627C553.007 125.374 531.036 130.413 510.908 141.933C495.678 150.651 481.462 163.107 467.37 175.455L467.37 175.455C462.878 179.39 458.4 183.315 453.905 187.103C435.265 202.814 416.339 216.206 394.925 218.743C373.552 221.275 349.571 213.003 320.8 185.062C291.939 157.033 268.754 142.307 247.94 135.963C227.109 129.615 208.707 131.678 189.458 137.11C179.935 139.797 170.209 143.305 159.876 147.031L159.875 147.032C128.429 158.372 91.3536 171.743 37.2259 170.213C1.2262 169.195 -16.252 162.191 -23.9871 151.91C-31.7184 141.634 -29.8646 127.9 -26.6055 112.919C-26.1559 110.853 -25.68 108.763 -25.2006 106.659C-23.9514 101.175 -22.6789 95.5884 -21.7902 90.0444C-20.5592 82.3656 -20.0541 74.7159 -21.3632 67.4295C-22.6742 60.1332 -25.8027 53.2121 -31.8173 46.9981C-37.8262 40.79 -46.6939 35.3098 -59.4507 30.8516ZM-274.109 60.561C-239.999 44.8423 -151.446 20.5231 -69.9975 49.0028C-57.2474 53.461 -48.3845 58.9411 -42.3788 65.1493C-36.3674 71.3633 -33.2407 78.2844 -31.9304 85.5807C-30.6219 92.867 -31.1268 100.517 -32.3571 108.195C-33.2452 113.739 -34.5167 119.324 -35.7651 124.808L-35.7654 124.809L-35.7656 124.81L-35.7658 124.811C-36.2449 126.915 -36.7205 129.004 -37.1698 131.07C-40.4272 146.051 -42.28 159.785 -34.5529 170.061C-26.822 180.342 -9.35333 187.346 26.6269 188.364C80.7255 189.895 117.781 176.524 149.21 165.183L149.211 165.182L149.212 165.182L149.212 165.182C159.54 161.455 169.26 157.948 178.777 155.261C198.016 149.829 216.408 147.766 237.227 154.115C258.031 160.458 281.203 175.184 310.049 203.213C338.804 231.154 362.772 239.426 384.133 236.894C405.535 234.357 424.452 220.965 443.081 205.255C447.574 201.466 452.05 197.541 456.539 193.606C470.623 181.259 484.832 168.802 500.054 160.085C520.171 148.564 542.13 143.525 568.041 153.778L567.673 154.708C542.114 144.595 520.477 149.541 500.551 160.952C485.424 169.615 471.324 181.976 457.258 194.307L457.257 194.308C452.754 198.255 448.254 202.2 443.726 206.019C425.092 221.733 405.976 235.312 384.251 237.887C362.486 240.467 338.234 231.995 309.352 203.931C280.562 175.956 257.525 161.349 236.936 155.071C216.363 148.798 198.179 150.822 179.049 156.223C169.617 158.886 159.95 162.375 149.658 166.089L149.657 166.089C118.205 177.44 80.9062 190.9 26.5986 189.364C-9.39948 188.345 -27.3168 181.348 -35.3521 170.662C-43.3911 159.972 -41.3904 145.774 -38.147 130.858C-37.6932 128.771 -37.2147 126.669 -36.7339 124.557C-35.4879 119.084 -34.2273 113.547 -33.3445 108.037C-32.1224 100.409 -31.6345 92.8859 -32.9147 85.7574C-34.193 78.6389 -37.2361 71.9036 -43.0975 65.8446C-48.9647 59.7796 -57.6775 54.37 -70.3276 49.9467C-151.44 21.5846 -239.71 45.8102 -273.691 61.4692L-274.109 60.561ZM-285 78.712C-250.871 62.9934 -162.271 38.6742 -80.7783 67.1538C-68.0215 71.6121 -59.1538 77.0922 -53.1449 83.3003C-47.1303 89.5143 -44.0018 96.4354 -42.6908 103.732C-41.3817 111.018 -41.8868 118.668 -43.1177 126.347C-44.0065 131.891 -45.2789 137.477 -46.5282 142.961C-47.0076 145.066 -47.4835 147.155 -47.933 149.222C-51.1922 164.202 -53.046 177.936 -45.3147 188.212C-37.5796 198.493 -20.1014 205.497 15.8983 206.515C70.0261 208.046 107.101 194.675 138.547 183.334C148.881 179.607 158.607 176.099 168.131 173.412C187.38 167.98 205.781 165.917 226.612 172.266C247.427 178.609 270.611 193.335 299.473 221.364C328.243 249.305 352.224 257.577 373.597 255.045C395.011 252.508 413.938 239.116 432.577 223.406C437.072 219.617 441.551 215.693 446.042 211.757L446.043 211.757L446.043 211.757L446.043 211.757C460.134 199.409 474.35 186.953 489.581 178.236C509.709 166.715 531.679 161.677 557.604 171.929L557.237 172.859C531.664 162.746 510.015 167.692 490.077 179.104C474.942 187.766 460.834 200.128 446.76 212.459C442.255 216.406 437.753 220.351 433.222 224.17C414.578 239.884 395.451 253.463 373.715 256.038C351.938 258.618 327.673 250.146 298.776 222.082C269.971 194.107 246.921 179.501 226.32 173.222C205.736 166.949 187.543 168.973 168.402 174.374C158.965 177.037 149.293 180.526 138.995 184.24C107.525 195.591 70.2068 209.051 15.87 207.515C-20.1474 206.496 -38.0742 199.499 -46.1138 188.813C-54.1572 178.123 -52.1553 163.925 -48.9102 149.009C-48.4567 146.925 -47.9787 144.826 -47.4985 142.718L-47.4963 142.708C-46.2496 137.235 -44.9884 131.698 -44.1052 126.188C-42.8823 118.561 -42.3942 111.037 -43.675 103.909C-44.9541 96.7901 -47.9988 90.0548 -53.8635 83.9958C-59.7338 77.9308 -68.4513 72.5211 -81.1083 68.0978C-162.265 39.7357 -250.582 63.9614 -284.581 79.6203L-285 78.712Z" fill="url(#paint0_linear_313_2635)"/>
<defs>
<linearGradient id="paint0_linear_313_2635" x1="503.746" y1="200.65" x2="-151.419" y2="200.65" gradientUnits="userSpaceOnUse">
<stop offset="0.310417" stop-color="white" stop-opacity="0.24"/>
<stop offset="0.461458" stop-color="white" stop-opacity="0.38"/>
<stop offset="0.851637" stop-color="white" stop-opacity="0.07"/>
</linearGradient>
</defs>
</svg>
