<svg width="390" height="257" viewBox="0 0 390 257" fill="none" xmlns="http://www.w3.org/2000/svg">
<path fill-rule="evenodd" clip-rule="evenodd" d="M-254.781 231.82C-220.653 247.503 -132.053 271.767 -50.5607 243.352C-37.804 238.904 -28.9363 233.436 -22.9273 227.242C-16.9126 221.042 -13.7839 214.136 -12.4729 206.856C-11.1636 199.585 -11.6688 191.953 -12.8998 184.291C-13.7886 178.759 -15.0612 173.185 -16.3105 167.713C-16.7898 165.613 -17.2657 163.529 -17.7151 161.467C-20.9743 146.52 -22.8279 132.818 -15.0971 122.566C-7.36212 112.309 10.1163 105.32 46.1162 104.305C100.244 102.777 137.32 116.118 168.766 127.434L168.766 127.434C179.1 131.152 188.826 134.652 198.349 137.333C217.598 142.753 235.999 144.811 256.83 138.477C277.644 132.147 300.829 117.455 329.69 89.4887C358.46 61.6113 382.442 53.3573 403.816 55.884C425.23 58.4155 444.156 71.7769 462.796 87.4521C467.291 91.2324 471.769 95.148 476.261 99.0746C490.352 111.394 504.569 123.822 519.799 132.52C539.927 144.015 561.897 149.042 587.822 138.813L587.455 137.883C561.882 147.973 540.232 143.038 520.295 131.652C505.16 123.009 491.052 110.675 476.978 98.3718L476.977 98.3711C472.472 94.4326 467.97 90.4971 463.439 86.6868C444.796 71.0081 425.669 57.4604 403.933 54.8909C382.157 52.3166 357.892 60.7697 328.995 88.7706C300.189 116.683 277.139 131.256 256.539 137.52C235.954 143.78 217.761 141.76 198.62 136.371C189.183 133.714 179.511 130.233 169.212 126.527C137.743 115.202 100.425 101.772 46.088 103.305C10.0709 104.321 -7.85583 111.302 -15.8955 121.964C-23.9395 132.631 -21.9373 146.798 -18.6922 161.68C-18.2388 163.76 -17.7607 165.854 -17.2805 167.958L-17.2783 167.967L-17.2774 167.971C-16.0311 173.43 -14.7702 178.954 -13.8871 184.45C-12.6644 192.06 -12.1763 199.566 -13.4571 206.678C-14.736 213.78 -17.7806 220.5 -23.6451 226.546C-29.5154 232.597 -38.2329 237.994 -50.89 242.408C-132.047 270.706 -220.365 246.535 -254.364 230.911L-254.781 231.82ZM-61.451 225.625C-142.943 254.105 -231.544 229.785 -265.672 214.067L-265.254 213.158C-231.255 228.817 -142.937 253.043 -61.7809 224.681C-49.124 220.258 -40.4064 214.848 -34.5361 208.783C-28.6715 202.724 -25.6268 195.989 -24.3477 188.87C-23.0669 181.742 -23.555 174.218 -24.7778 166.59C-25.6611 161.081 -26.9223 155.544 -28.1689 150.071L-28.1711 150.061C-28.6514 147.953 -29.1294 145.854 -29.5828 143.77C-32.828 128.853 -34.8299 114.656 -26.7865 103.965C-18.7469 93.2798 -0.820068 86.2826 35.1973 85.2641C89.5341 83.7276 126.852 97.1878 158.322 108.538C168.62 112.253 178.293 115.741 187.73 118.405C206.87 123.806 225.064 125.83 245.648 119.557C266.248 113.278 289.298 98.672 318.104 70.697C347.001 42.633 371.266 34.1606 393.042 36.7408C414.778 39.3161 433.906 52.8945 452.549 68.6086C457.08 72.4275 461.581 76.3718 466.087 80.3191L466.088 80.3199C480.162 92.6512 494.27 105.012 509.405 113.675C529.342 125.087 550.991 130.033 576.564 119.92L576.932 120.85C551.006 131.102 529.036 126.064 508.908 114.543C493.678 105.826 479.461 93.3692 465.37 81.022L465.369 81.0215C460.878 77.0861 456.399 73.1618 451.904 69.3732C433.265 53.6625 414.339 40.271 392.925 37.7338C371.552 35.2015 347.57 43.4738 318.8 71.4144C289.939 99.4438 266.754 114.169 245.939 120.513C225.109 126.862 206.707 124.799 187.458 119.367C177.935 116.68 168.209 113.172 157.875 109.445L157.875 109.445C126.429 98.1041 89.3534 84.7331 35.2256 86.2637C-0.774048 87.2817 -18.2523 94.2857 -25.9874 104.567C-33.7187 114.842 -31.8649 128.576 -28.6057 143.557C-28.1562 145.624 -27.6802 147.713 -27.2009 149.818C-25.9516 155.302 -24.6791 160.888 -23.7904 166.432C-22.5594 174.111 -22.0543 181.761 -23.3635 189.047C-24.6744 196.343 -27.803 203.264 -33.8176 209.478C-39.8265 215.687 -48.6942 221.167 -61.451 225.625ZM-276.109 195.916C-241.999 211.634 -153.446 235.953 -71.9977 207.474C-59.2477 203.016 -50.3848 197.535 -44.3791 191.327C-38.3677 185.113 -35.2409 178.192 -33.9307 170.896C-32.6222 163.61 -33.127 155.96 -34.3574 148.281C-35.2455 142.738 -36.517 137.153 -37.7653 131.669L-37.7657 131.668L-37.7659 131.667L-37.7661 131.666C-38.2451 129.562 -38.7208 127.472 -39.17 125.406C-42.4274 110.425 -44.2803 96.6911 -36.5531 86.4153C-28.8222 76.1346 -11.3536 69.1306 24.6266 68.1126C78.7252 66.582 115.78 79.953 147.21 91.2938L147.211 91.2942L147.211 91.2945L147.212 91.2948C157.54 95.0213 167.26 98.5286 176.777 101.216C196.016 106.648 214.408 108.711 235.227 102.362C256.03 96.0182 279.203 81.2926 308.049 53.2632C336.803 25.3226 360.772 17.0504 382.133 19.5827C403.535 22.1199 422.451 35.5113 441.081 51.222C445.573 55.0107 450.05 58.9352 454.539 62.8707C468.623 75.218 482.831 87.6744 498.054 96.3919C518.171 107.913 540.13 112.951 566.041 102.699L565.673 101.769C540.114 111.882 518.477 106.936 498.551 95.5241C483.424 86.8614 469.324 74.5004 455.257 62.1694L455.257 62.169C450.754 58.2213 446.254 54.2767 441.725 50.4575C423.092 34.7435 403.975 21.1651 382.251 18.5897C360.485 16.0095 336.234 24.482 307.352 52.546C278.562 80.521 255.524 95.1271 234.935 101.406C214.362 107.679 196.179 105.655 177.049 100.253C167.617 97.5904 157.95 94.1019 147.657 90.3875L147.657 90.3873C116.204 79.0367 78.9059 65.5765 24.5984 67.113C-11.3997 68.1315 -29.317 75.1287 -37.3524 85.8143C-45.3914 96.5048 -43.3906 110.702 -40.1472 125.619C-39.6934 127.706 -39.2149 129.808 -38.7342 131.919C-37.4882 137.392 -36.2275 142.93 -35.3448 148.439C-34.1226 156.067 -33.6348 163.591 -34.9149 170.719C-36.1932 177.838 -39.2364 184.573 -45.0978 190.632C-50.965 196.697 -59.6777 202.107 -72.3278 206.53C-153.44 234.892 -241.71 210.666 -275.691 195.007L-276.109 195.916ZM-287 177.765C-252.871 193.483 -164.271 217.802 -82.7786 189.323C-70.0217 184.865 -61.1541 179.384 -55.1451 173.176C-49.1306 166.962 -46.002 160.041 -44.691 152.745C-43.3819 145.458 -43.887 137.809 -45.118 130.13C-46.0067 124.586 -47.2792 119 -48.5284 113.515C-49.0078 111.411 -49.4838 109.321 -49.9333 107.255C-53.1924 92.2742 -55.0463 78.5401 -47.3149 68.2643C-39.5798 57.9835 -22.1016 50.9795 13.8981 49.9615C68.0259 48.4309 105.101 61.8019 136.547 73.1428C146.881 76.8697 156.607 80.3773 166.131 83.0648C185.379 88.4967 203.781 90.5596 224.612 84.2109C245.426 77.8672 268.611 63.1416 297.473 35.1122C326.243 7.17163 350.224 -1.10074 371.597 1.43161C393.011 3.96881 411.938 17.3603 430.577 33.071C435.072 36.8596 439.55 40.7839 444.042 44.7193L444.042 44.7198L444.042 44.7198L444.043 44.7199C458.134 57.0672 472.35 69.5235 487.58 78.2409C507.709 89.7616 529.679 94.8 555.604 84.5477L555.236 83.6177C529.663 93.7307 508.014 88.7844 488.077 77.373C472.942 68.7101 458.834 56.3489 444.76 44.0177C440.254 40.0701 435.752 36.1255 431.221 32.3063C412.578 16.5923 393.451 3.01392 371.715 0.438568C349.938 -2.1416 325.673 6.33081 296.776 34.3948C267.97 62.3698 244.921 76.9759 224.32 83.2544C203.736 89.528 185.542 87.5036 166.402 82.1024C156.965 79.4392 147.293 75.9507 136.994 72.2361C105.525 60.8856 68.2065 47.4254 13.8698 48.9619C-22.1476 49.9804 -40.0745 56.9776 -48.1141 67.6631C-56.1575 78.3537 -54.1556 92.5512 -50.9104 107.468C-50.457 109.552 -49.9789 111.651 -49.4987 113.759L-49.4965 113.769C-48.2499 119.242 -46.9886 124.779 -46.1054 130.288C-44.8826 137.916 -44.3945 145.44 -45.6753 152.568C-46.9543 159.686 -49.9991 166.422 -55.8637 172.481C-61.734 178.546 -70.4515 183.955 -83.1085 188.379C-164.265 216.741 -252.583 192.515 -286.582 176.856L-287 177.765Z" fill="url(#paint0_linear_313_2844)"/>
<defs>
<linearGradient id="paint0_linear_313_2844" x1="501.745" y1="55.8267" x2="-153.419" y2="55.8267" gradientUnits="userSpaceOnUse">
<stop offset="0.310417" stop-color="#464646" stop-opacity="0.13"/>
<stop offset="0.461458" stop-color="#464646" stop-opacity="0.06"/>
<stop offset="0.851637" stop-color="#464646" stop-opacity="0.07"/>
</linearGradient>
</defs>
</svg>
