<svg width="60" height="57" viewBox="0 0 60 57" fill="none" xmlns="http://www.w3.org/2000/svg">
<path fill-rule="evenodd" clip-rule="evenodd" d="M29.8732 56.6667C46.3717 56.6667 59.7464 43.9814 59.7464 28.3333C59.7464 12.6853 46.3717 0 29.8732 0C13.3746 0 0 12.6853 0 28.3333C0 43.9814 13.3746 56.6667 29.8732 56.6667ZM39.1926 13.1989C39.6462 11.6706 38.0825 10.7669 36.6544 11.7318L16.7187 25.2019C15.1699 26.2484 15.4135 28.3333 17.0846 28.3333H22.3343V28.2948H32.5655L24.229 31.0846L20.5538 43.4679C20.1002 44.9962 21.6638 45.8999 23.092 44.9348L43.0277 31.4649C44.5765 30.4184 44.3327 28.3333 42.6618 28.3333H34.7009L39.1926 13.1989Z" fill="white"/>
</svg>
