<svg width="14" height="14" viewBox="0 0 14 14" fill="none" xmlns="http://www.w3.org/2000/svg">
<path d="M8.75 13.2712H5.25C2.6775 13.2712 1.89583 12.4895 1.89583 9.91699V4.08366C1.89583 1.51116 2.6775 0.729492 5.25 0.729492H8.75C11.3225 0.729492 12.1042 1.51116 12.1042 4.08366V9.91699C12.1042 12.4895 11.3225 13.2712 8.75 13.2712ZM5.25 1.60449C3.16166 1.60449 2.77083 2.00116 2.77083 4.08366V9.91699C2.77083 11.9995 3.16166 12.3962 5.25 12.3962H8.75C10.8383 12.3962 11.2292 11.9995 11.2292 9.91699V4.08366C11.2292 2.00116 10.8383 1.60449 8.75 1.60449H5.25Z" fill="white"/>
<path d="M8.16666 3.64551H5.83333C5.59416 3.64551 5.39583 3.44717 5.39583 3.20801C5.39583 2.96884 5.59416 2.77051 5.83333 2.77051H8.16666C8.40583 2.77051 8.60416 2.96884 8.60416 3.20801C8.60416 3.44717 8.40583 3.64551 8.16666 3.64551Z" fill="white"/>
<path d="M7.00001 11.5847C6.25917 11.5847 5.65834 10.9839 5.65834 10.243C5.65834 9.5022 6.25917 8.90137 7.00001 8.90137C7.74084 8.90137 8.34167 9.5022 8.34167 10.243C8.34167 10.9839 7.74084 11.5847 7.00001 11.5847ZM7.00001 9.77053C6.74334 9.77053 6.53334 9.98053 6.53334 10.2372C6.53334 10.4939 6.74334 10.7039 7.00001 10.7039C7.25667 10.7039 7.46667 10.4939 7.46667 10.2372C7.46667 9.98053 7.25667 9.77053 7.00001 9.77053Z" fill="white"/>
</svg>
