<svg width="16" height="17" viewBox="0 0 16 17" fill="none" xmlns="http://www.w3.org/2000/svg">
<g clip-path="url(#clip0_313_2673)">
<path d="M9.09804 12.2022C9.09804 12.327 9.04846 12.4467 8.96021 12.535C8.87196 12.6232 8.75226 12.6728 8.62745 12.6728C8.33623 12.6728 8.05694 12.5571 7.85102 12.3512C7.6451 12.1453 7.52941 11.866 7.52941 11.5748V8.4375C7.52941 8.3959 7.51289 8.356 7.48347 8.32658C7.45405 8.29716 7.41415 8.28064 7.37255 8.28064C7.24774 8.28064 7.12805 8.23106 7.03979 8.1428C6.95154 8.05455 6.90196 7.93485 6.90196 7.81005C6.90196 7.68524 6.95154 7.56554 7.03979 7.47729C7.12805 7.38904 7.24774 7.33946 7.37255 7.33946C7.66377 7.33946 7.94306 7.45514 8.14898 7.66107C8.3549 7.86699 8.47059 8.14628 8.47059 8.4375V11.5748C8.47059 11.6164 8.48712 11.6563 8.51653 11.6857C8.54595 11.7151 8.58585 11.7316 8.62745 11.7316C8.75226 11.7316 8.87196 11.7812 8.96021 11.8694C9.04846 11.9577 9.09804 12.0774 9.09804 12.2022ZM7.68628 5.77083C7.8414 5.77083 7.99304 5.72483 8.12202 5.63865C8.251 5.55247 8.35152 5.42998 8.41089 5.28666C8.47025 5.14335 8.48578 4.98565 8.45552 4.83351C8.42526 4.68136 8.35056 4.54161 8.24087 4.43193C8.13118 4.32224 7.99143 4.24754 7.83929 4.21728C7.68715 4.18701 7.52945 4.20254 7.38613 4.26191C7.24282 4.32127 7.12032 4.4218 7.03414 4.55078C6.94796 4.67976 6.90196 4.8314 6.90196 4.98652C6.90196 5.19453 6.9846 5.39402 7.13168 5.54111C7.27877 5.6882 7.47826 5.77083 7.68628 5.77083ZM16 8.4375C16 10.0197 15.5308 11.5665 14.6518 12.8821C13.7727 14.1977 12.5233 15.223 11.0615 15.8285C9.59966 16.434 7.99113 16.5925 6.43928 16.2838C4.88743 15.9751 3.46197 15.2132 2.34315 14.0944C1.22433 12.9755 0.462403 11.5501 0.153721 9.99822C-0.15496 8.44637 0.00346614 6.83784 0.608967 5.37603C1.21447 3.91422 2.23985 2.66479 3.55544 1.78574C4.87103 0.906692 6.41775 0.4375 8 0.4375C10.121 0.439991 12.1544 1.28365 13.6541 2.7834C15.1539 4.28315 15.9975 6.31653 16 8.4375ZM15.0588 8.4375C15.0588 7.04139 14.6448 5.67664 13.8692 4.51583C13.0936 3.35501 11.9911 2.45026 10.7013 1.916C9.41146 1.38173 7.99217 1.24194 6.62289 1.51431C5.25362 1.78668 3.99585 2.45896 3.00866 3.44616C2.02147 4.43335 1.34918 5.69111 1.07681 7.06039C0.804447 8.42967 0.944235 9.84896 1.4785 11.1388C2.01277 12.4286 2.91751 13.5311 4.07833 14.3067C5.23915 15.0823 6.6039 15.4963 8 15.4963C9.87148 15.4942 11.6657 14.7499 12.989 13.4265C14.3124 12.1032 15.0567 10.309 15.0588 8.4375Z" fill="#F67D14"/>
</g>
<defs>
<clipPath id="clip0_313_2673">
<rect width="16" height="17" fill="white"/>
</clipPath>
</defs>
</svg>
